<mxfile host="app.diagrams.net" agent="Mozilla/5.0 (Windows NT 10.0; Win64; x64) AppleWebKit/537.36 (KHTML, like Gecko) Chrome/126.0.0.0 Safari/537.36" version="24.7.5">
  <diagram name="Pagina-1" id="sqqUwXU8iAgjDIqpLK0p">
    <mxGraphModel dx="1537" dy="605" grid="1" gridSize="10" guides="1" tooltips="1" connect="1" arrows="1" fold="1" page="1" pageScale="1" pageWidth="1169" pageHeight="827" math="0" shadow="0">
      <root>
        <mxCell id="0" />
        <mxCell id="1" parent="0" />
        <mxCell id="8PVN17uJOpamfgRS3HQa-1" value="EventInfo" style="swimlane;fontStyle=0;align=center;verticalAlign=top;childLayout=stackLayout;horizontal=1;startSize=26;horizontalStack=0;resizeParent=1;resizeLast=0;collapsible=1;marginBottom=0;rounded=0;shadow=0;strokeWidth=1;" parent="1" vertex="1">
          <mxGeometry x="20" y="30" width="310" height="430" as="geometry">
            <mxRectangle x="230" y="140" width="160" height="26" as="alternateBounds" />
          </mxGeometry>
        </mxCell>
        <mxCell id="8PVN17uJOpamfgRS3HQa-2" value="- data: LocalDate" style="text;align=left;verticalAlign=top;spacingLeft=4;spacingRight=4;overflow=hidden;rotatable=0;points=[[0,0.5],[1,0.5]];portConstraint=eastwest;" parent="8PVN17uJOpamfgRS3HQa-1" vertex="1">
          <mxGeometry y="26" width="310" height="26" as="geometry" />
        </mxCell>
        <mxCell id="8PVN17uJOpamfgRS3HQa-3" value="- oraInizio: LocalTime" style="text;align=left;verticalAlign=top;spacingLeft=4;spacingRight=4;overflow=hidden;rotatable=0;points=[[0,0.5],[1,0.5]];portConstraint=eastwest;" parent="8PVN17uJOpamfgRS3HQa-1" vertex="1">
          <mxGeometry y="52" width="310" height="26" as="geometry" />
        </mxCell>
        <mxCell id="8PVN17uJOpamfgRS3HQa-4" value="- oraFine: LocalTime" style="text;align=left;verticalAlign=top;spacingLeft=4;spacingRight=4;overflow=hidden;rotatable=0;points=[[0,0.5],[1,0.5]];portConstraint=eastwest;rounded=0;shadow=0;html=0;" parent="8PVN17uJOpamfgRS3HQa-1" vertex="1">
          <mxGeometry y="78" width="310" height="26" as="geometry" />
        </mxCell>
        <mxCell id="8PVN17uJOpamfgRS3HQa-18" value="- nomeOrganizzatore: String" style="text;align=left;verticalAlign=top;spacingLeft=4;spacingRight=4;overflow=hidden;rotatable=0;points=[[0,0.5],[1,0.5]];portConstraint=eastwest;rounded=0;shadow=0;html=0;" parent="8PVN17uJOpamfgRS3HQa-1" vertex="1">
          <mxGeometry y="104" width="310" height="26" as="geometry" />
        </mxCell>
        <mxCell id="8PVN17uJOpamfgRS3HQa-19" value="- costoPartecipazione: Double" style="text;align=left;verticalAlign=top;spacingLeft=4;spacingRight=4;overflow=hidden;rotatable=0;points=[[0,0.5],[1,0.5]];portConstraint=eastwest;rounded=0;shadow=0;html=0;" parent="8PVN17uJOpamfgRS3HQa-1" vertex="1">
          <mxGeometry y="130" width="310" height="26" as="geometry" />
        </mxCell>
        <mxCell id="8PVN17uJOpamfgRS3HQa-20" value="- sala: String" style="text;align=left;verticalAlign=top;spacingLeft=4;spacingRight=4;overflow=hidden;rotatable=0;points=[[0,0.5],[1,0.5]];portConstraint=eastwest;rounded=0;shadow=0;html=0;" parent="8PVN17uJOpamfgRS3HQa-1" vertex="1">
          <mxGeometry y="156" width="310" height="26" as="geometry" />
        </mxCell>
        <mxCell id="8PVN17uJOpamfgRS3HQa-21" value="- partPrevisti: Integer" style="text;align=left;verticalAlign=top;spacingLeft=4;spacingRight=4;overflow=hidden;rotatable=0;points=[[0,0.5],[1,0.5]];portConstraint=eastwest;rounded=0;shadow=0;html=0;" parent="8PVN17uJOpamfgRS3HQa-1" vertex="1">
          <mxGeometry y="182" width="310" height="26" as="geometry" />
        </mxCell>
        <mxCell id="8PVN17uJOpamfgRS3HQa-22" value="- catering: CateringType" style="text;align=left;verticalAlign=top;spacingLeft=4;spacingRight=4;overflow=hidden;rotatable=0;points=[[0,0.5],[1,0.5]];portConstraint=eastwest;rounded=0;shadow=0;html=0;" parent="8PVN17uJOpamfgRS3HQa-1" vertex="1">
          <mxGeometry y="208" width="310" height="26" as="geometry" />
        </mxCell>
        <mxCell id="8PVN17uJOpamfgRS3HQa-5" value="" style="line;html=1;strokeWidth=1;align=left;verticalAlign=middle;spacingTop=-1;spacingLeft=3;spacingRight=3;rotatable=0;labelPosition=right;points=[];portConstraint=eastwest;" parent="8PVN17uJOpamfgRS3HQa-1" vertex="1">
          <mxGeometry y="234" width="310" height="8" as="geometry" />
        </mxCell>
        <mxCell id="8PVN17uJOpamfgRS3HQa-6" value="+ EventInfo()" style="text;align=left;verticalAlign=top;spacingLeft=4;spacingRight=4;overflow=hidden;rotatable=0;points=[[0,0.5],[1,0.5]];portConstraint=eastwest;" parent="8PVN17uJOpamfgRS3HQa-1" vertex="1">
          <mxGeometry y="242" width="310" height="26" as="geometry" />
        </mxCell>
        <mxCell id="8PVN17uJOpamfgRS3HQa-7" value="+ setNomeOrganizzatore(nome: String): void" style="text;align=left;verticalAlign=top;spacingLeft=4;spacingRight=4;overflow=hidden;rotatable=0;points=[[0,0.5],[1,0.5]];portConstraint=eastwest;" parent="8PVN17uJOpamfgRS3HQa-1" vertex="1">
          <mxGeometry y="268" width="310" height="26" as="geometry" />
        </mxCell>
        <mxCell id="8PVN17uJOpamfgRS3HQa-8" value="+ getNomeOrganizzatore(): String" style="text;align=left;verticalAlign=top;spacingLeft=4;spacingRight=4;overflow=hidden;rotatable=0;points=[[0,0.5],[1,0.5]];portConstraint=eastwest;" parent="8PVN17uJOpamfgRS3HQa-1" vertex="1">
          <mxGeometry y="294" width="310" height="26" as="geometry" />
        </mxCell>
        <mxCell id="8PVN17uJOpamfgRS3HQa-9" value="+ setCostoPartecipazione(costo: Double)" style="text;align=left;verticalAlign=top;spacingLeft=4;spacingRight=4;overflow=hidden;rotatable=0;points=[[0,0.5],[1,0.5]];portConstraint=eastwest;" parent="8PVN17uJOpamfgRS3HQa-1" vertex="1">
          <mxGeometry y="320" width="310" height="26" as="geometry" />
        </mxCell>
        <mxCell id="8PVN17uJOpamfgRS3HQa-10" value="+ getCostoPartecipazione(): Double" style="text;align=left;verticalAlign=top;spacingLeft=4;spacingRight=4;overflow=hidden;rotatable=0;points=[[0,0.5],[1,0.5]];portConstraint=eastwest;" parent="8PVN17uJOpamfgRS3HQa-1" vertex="1">
          <mxGeometry y="346" width="310" height="26" as="geometry" />
        </mxCell>
        <mxCell id="8PVN17uJOpamfgRS3HQa-11" value="+ get() ...." style="text;align=left;verticalAlign=top;spacingLeft=4;spacingRight=4;overflow=hidden;rotatable=0;points=[[0,0.5],[1,0.5]];portConstraint=eastwest;" parent="8PVN17uJOpamfgRS3HQa-1" vertex="1">
          <mxGeometry y="372" width="310" height="26" as="geometry" />
        </mxCell>
        <mxCell id="8PVN17uJOpamfgRS3HQa-12" value="+ set(....): void" style="text;align=left;verticalAlign=top;spacingLeft=4;spacingRight=4;overflow=hidden;rotatable=0;points=[[0,0.5],[1,0.5]];portConstraint=eastwest;" parent="8PVN17uJOpamfgRS3HQa-1" vertex="1">
          <mxGeometry y="398" width="310" height="26" as="geometry" />
        </mxCell>
        <mxCell id="8PVN17uJOpamfgRS3HQa-23" value="&lt;&lt;enumaration&gt;&gt; &#xa;CateringType" style="swimlane;fontStyle=0;align=center;verticalAlign=top;childLayout=stackLayout;horizontal=1;startSize=35;horizontalStack=0;resizeParent=1;resizeLast=0;collapsible=1;marginBottom=0;rounded=0;shadow=0;strokeWidth=1;" parent="1" vertex="1">
          <mxGeometry x="410" y="162.5" width="164" height="165" as="geometry">
            <mxRectangle x="130" y="380" width="160" height="26" as="alternateBounds" />
          </mxGeometry>
        </mxCell>
        <mxCell id="8PVN17uJOpamfgRS3HQa-24" value="+ COLAZIONE" style="text;align=left;verticalAlign=top;spacingLeft=4;spacingRight=4;overflow=hidden;rotatable=0;points=[[0,0.5],[1,0.5]];portConstraint=eastwest;" parent="8PVN17uJOpamfgRS3HQa-23" vertex="1">
          <mxGeometry y="35" width="164" height="26" as="geometry" />
        </mxCell>
        <mxCell id="8PVN17uJOpamfgRS3HQa-25" value="+ COFFEE_BREAK" style="text;align=left;verticalAlign=top;spacingLeft=4;spacingRight=4;overflow=hidden;rotatable=0;points=[[0,0.5],[1,0.5]];portConstraint=eastwest;" parent="8PVN17uJOpamfgRS3HQa-23" vertex="1">
          <mxGeometry y="61" width="164" height="26" as="geometry" />
        </mxCell>
        <mxCell id="8PVN17uJOpamfgRS3HQa-26" value="+ PRANZO" style="text;align=left;verticalAlign=top;spacingLeft=4;spacingRight=4;overflow=hidden;rotatable=0;points=[[0,0.5],[1,0.5]];portConstraint=eastwest;" parent="8PVN17uJOpamfgRS3HQa-23" vertex="1">
          <mxGeometry y="87" width="164" height="26" as="geometry" />
        </mxCell>
        <mxCell id="8PVN17uJOpamfgRS3HQa-27" value="+ BRUNCH" style="text;align=left;verticalAlign=top;spacingLeft=4;spacingRight=4;overflow=hidden;rotatable=0;points=[[0,0.5],[1,0.5]];portConstraint=eastwest;" parent="8PVN17uJOpamfgRS3HQa-23" vertex="1">
          <mxGeometry y="113" width="164" height="26" as="geometry" />
        </mxCell>
        <mxCell id="8PVN17uJOpamfgRS3HQa-28" value="+ BUFFET" style="text;align=left;verticalAlign=top;spacingLeft=4;spacingRight=4;overflow=hidden;rotatable=0;points=[[0,0.5],[1,0.5]];portConstraint=eastwest;" parent="8PVN17uJOpamfgRS3HQa-23" vertex="1">
          <mxGeometry y="139" width="164" height="26" as="geometry" />
        </mxCell>
        <mxCell id="8PVN17uJOpamfgRS3HQa-29" value="1" style="endArrow=open;html=1;endSize=12;startArrow=diamondThin;startSize=14;startFill=1;align=left;verticalAlign=bottom;rounded=0;" parent="1" source="8PVN17uJOpamfgRS3HQa-1" target="8PVN17uJOpamfgRS3HQa-23" edge="1">
          <mxGeometry x="-0.8773" y="-17" relative="1" as="geometry">
            <mxPoint x="320" y="112" as="sourcePoint" />
            <mxPoint x="390" y="110" as="targetPoint" />
            <mxPoint as="offset" />
          </mxGeometry>
        </mxCell>
        <mxCell id="8PVN17uJOpamfgRS3HQa-30" value="Speech" style="swimlane;fontStyle=0;align=center;verticalAlign=top;childLayout=stackLayout;horizontal=1;startSize=26;horizontalStack=0;resizeParent=1;resizeLast=0;collapsible=1;marginBottom=0;rounded=0;shadow=0;strokeWidth=1;" parent="1" vertex="1">
          <mxGeometry x="460" y="520" width="310" height="380" as="geometry">
            <mxRectangle x="230" y="140" width="160" height="26" as="alternateBounds" />
          </mxGeometry>
        </mxCell>
        <mxCell id="8PVN17uJOpamfgRS3HQa-31" value="- titolo: String" style="text;align=left;verticalAlign=top;spacingLeft=4;spacingRight=4;overflow=hidden;rotatable=0;points=[[0,0.5],[1,0.5]];portConstraint=eastwest;" parent="8PVN17uJOpamfgRS3HQa-30" vertex="1">
          <mxGeometry y="26" width="310" height="26" as="geometry" />
        </mxCell>
        <mxCell id="8PVN17uJOpamfgRS3HQa-32" value="- relatore: String" style="text;align=left;verticalAlign=top;spacingLeft=4;spacingRight=4;overflow=hidden;rotatable=0;points=[[0,0.5],[1,0.5]];portConstraint=eastwest;" parent="8PVN17uJOpamfgRS3HQa-30" vertex="1">
          <mxGeometry y="52" width="310" height="26" as="geometry" />
        </mxCell>
        <mxCell id="8PVN17uJOpamfgRS3HQa-33" value="- descrizione: String" style="text;align=left;verticalAlign=top;spacingLeft=4;spacingRight=4;overflow=hidden;rotatable=0;points=[[0,0.5],[1,0.5]];portConstraint=eastwest;rounded=0;shadow=0;html=0;" parent="8PVN17uJOpamfgRS3HQa-30" vertex="1">
          <mxGeometry y="78" width="310" height="26" as="geometry" />
        </mxCell>
        <mxCell id="8PVN17uJOpamfgRS3HQa-39" value="" style="line;html=1;strokeWidth=1;align=left;verticalAlign=middle;spacingTop=-1;spacingLeft=3;spacingRight=3;rotatable=0;labelPosition=right;points=[];portConstraint=eastwest;" parent="8PVN17uJOpamfgRS3HQa-30" vertex="1">
          <mxGeometry y="104" width="310" height="8" as="geometry" />
        </mxCell>
        <mxCell id="8PVN17uJOpamfgRS3HQa-40" value="+ Speech()" style="text;align=left;verticalAlign=top;spacingLeft=4;spacingRight=4;overflow=hidden;rotatable=0;points=[[0,0.5],[1,0.5]];portConstraint=eastwest;" parent="8PVN17uJOpamfgRS3HQa-30" vertex="1">
          <mxGeometry y="112" width="310" height="26" as="geometry" />
        </mxCell>
        <mxCell id="8PVN17uJOpamfgRS3HQa-41" value="+ getTitolo(): String" style="text;align=left;verticalAlign=top;spacingLeft=4;spacingRight=4;overflow=hidden;rotatable=0;points=[[0,0.5],[1,0.5]];portConstraint=eastwest;" parent="8PVN17uJOpamfgRS3HQa-30" vertex="1">
          <mxGeometry y="138" width="310" height="26" as="geometry" />
        </mxCell>
        <mxCell id="8PVN17uJOpamfgRS3HQa-42" value="+ setTitolo(s: String): void" style="text;align=left;verticalAlign=top;spacingLeft=4;spacingRight=4;overflow=hidden;rotatable=0;points=[[0,0.5],[1,0.5]];portConstraint=eastwest;" parent="8PVN17uJOpamfgRS3HQa-30" vertex="1">
          <mxGeometry y="164" width="310" height="26" as="geometry" />
        </mxCell>
        <mxCell id="8PVN17uJOpamfgRS3HQa-43" value="+ getRelatore(): String" style="text;align=left;verticalAlign=top;spacingLeft=4;spacingRight=4;overflow=hidden;rotatable=0;points=[[0,0.5],[1,0.5]];portConstraint=eastwest;" parent="8PVN17uJOpamfgRS3HQa-30" vertex="1">
          <mxGeometry y="190" width="310" height="26" as="geometry" />
        </mxCell>
        <mxCell id="8PVN17uJOpamfgRS3HQa-44" value="+ setRelatore(s: String): void" style="text;align=left;verticalAlign=top;spacingLeft=4;spacingRight=4;overflow=hidden;rotatable=0;points=[[0,0.5],[1,0.5]];portConstraint=eastwest;" parent="8PVN17uJOpamfgRS3HQa-30" vertex="1">
          <mxGeometry y="216" width="310" height="26" as="geometry" />
        </mxCell>
        <mxCell id="8PVN17uJOpamfgRS3HQa-45" value="+ getDescrizione(): String" style="text;align=left;verticalAlign=top;spacingLeft=4;spacingRight=4;overflow=hidden;rotatable=0;points=[[0,0.5],[1,0.5]];portConstraint=eastwest;" parent="8PVN17uJOpamfgRS3HQa-30" vertex="1">
          <mxGeometry y="242" width="310" height="26" as="geometry" />
        </mxCell>
        <mxCell id="8PVN17uJOpamfgRS3HQa-46" value="+ setDescrizione(s:String) : void" style="text;align=left;verticalAlign=top;spacingLeft=4;spacingRight=4;overflow=hidden;rotatable=0;points=[[0,0.5],[1,0.5]];portConstraint=eastwest;" parent="8PVN17uJOpamfgRS3HQa-30" vertex="1">
          <mxGeometry y="268" width="310" height="26" as="geometry" />
        </mxCell>
        <mxCell id="8PVN17uJOpamfgRS3HQa-47" value="+ toString(): String" style="text;align=left;verticalAlign=top;spacingLeft=4;spacingRight=4;overflow=hidden;rotatable=0;points=[[0,0.5],[1,0.5]];portConstraint=eastwest;" parent="8PVN17uJOpamfgRS3HQa-30" vertex="1">
          <mxGeometry y="294" width="310" height="26" as="geometry" />
        </mxCell>
        <mxCell id="8PVN17uJOpamfgRS3HQa-48" value="+ equals(o :Object): boolean" style="text;align=left;verticalAlign=top;spacingLeft=4;spacingRight=4;overflow=hidden;rotatable=0;points=[[0,0.5],[1,0.5]];portConstraint=eastwest;" parent="8PVN17uJOpamfgRS3HQa-30" vertex="1">
          <mxGeometry y="320" width="310" height="26" as="geometry" />
        </mxCell>
        <mxCell id="8PVN17uJOpamfgRS3HQa-49" value="+ hashCode(): int" style="text;align=left;verticalAlign=top;spacingLeft=4;spacingRight=4;overflow=hidden;rotatable=0;points=[[0,0.5],[1,0.5]];portConstraint=eastwest;" parent="8PVN17uJOpamfgRS3HQa-30" vertex="1">
          <mxGeometry y="346" width="310" height="26" as="geometry" />
        </mxCell>
        <mxCell id="8PVN17uJOpamfgRS3HQa-50" value="Event" style="swimlane;fontStyle=0;align=center;verticalAlign=top;childLayout=stackLayout;horizontal=1;startSize=26;horizontalStack=0;resizeParent=1;resizeLast=0;collapsible=1;marginBottom=0;rounded=0;shadow=0;strokeWidth=1;" parent="1" vertex="1">
          <mxGeometry x="130" y="560" width="220" height="330" as="geometry">
            <mxRectangle x="230" y="140" width="160" height="26" as="alternateBounds" />
          </mxGeometry>
        </mxCell>
        <mxCell id="8PVN17uJOpamfgRS3HQa-51" value="- nome: String" style="text;align=left;verticalAlign=top;spacingLeft=4;spacingRight=4;overflow=hidden;rotatable=0;points=[[0,0.5],[1,0.5]];portConstraint=eastwest;" parent="8PVN17uJOpamfgRS3HQa-50" vertex="1">
          <mxGeometry y="26" width="220" height="26" as="geometry" />
        </mxCell>
        <mxCell id="8PVN17uJOpamfgRS3HQa-52" value="- elencoInterventi: List &lt;Speech&gt;" style="text;align=left;verticalAlign=top;spacingLeft=4;spacingRight=4;overflow=hidden;rotatable=0;points=[[0,0.5],[1,0.5]];portConstraint=eastwest;" parent="8PVN17uJOpamfgRS3HQa-50" vertex="1">
          <mxGeometry y="52" width="220" height="26" as="geometry" />
        </mxCell>
        <mxCell id="8PVN17uJOpamfgRS3HQa-59" value="" style="line;html=1;strokeWidth=1;align=left;verticalAlign=middle;spacingTop=-1;spacingLeft=3;spacingRight=3;rotatable=0;labelPosition=right;points=[];portConstraint=eastwest;" parent="8PVN17uJOpamfgRS3HQa-50" vertex="1">
          <mxGeometry y="78" width="220" height="8" as="geometry" />
        </mxCell>
        <mxCell id="8PVN17uJOpamfgRS3HQa-60" value="+ Event()" style="text;align=left;verticalAlign=top;spacingLeft=4;spacingRight=4;overflow=hidden;rotatable=0;points=[[0,0.5],[1,0.5]];portConstraint=eastwest;" parent="8PVN17uJOpamfgRS3HQa-50" vertex="1">
          <mxGeometry y="86" width="220" height="26" as="geometry" />
        </mxCell>
        <mxCell id="8PVN17uJOpamfgRS3HQa-61" value="+ Event(s: String)" style="text;align=left;verticalAlign=top;spacingLeft=4;spacingRight=4;overflow=hidden;rotatable=0;points=[[0,0.5],[1,0.5]];portConstraint=eastwest;" parent="8PVN17uJOpamfgRS3HQa-50" vertex="1">
          <mxGeometry y="112" width="220" height="26" as="geometry" />
        </mxCell>
        <mxCell id="8PVN17uJOpamfgRS3HQa-62" value="+ getNome(): String" style="text;align=left;verticalAlign=top;spacingLeft=4;spacingRight=4;overflow=hidden;rotatable=0;points=[[0,0.5],[1,0.5]];portConstraint=eastwest;" parent="8PVN17uJOpamfgRS3HQa-50" vertex="1">
          <mxGeometry y="138" width="220" height="26" as="geometry" />
        </mxCell>
        <mxCell id="8PVN17uJOpamfgRS3HQa-63" value="+ addIntervento(intervento: Speech)" style="text;align=left;verticalAlign=top;spacingLeft=4;spacingRight=4;overflow=hidden;rotatable=0;points=[[0,0.5],[1,0.5]];portConstraint=eastwest;" parent="8PVN17uJOpamfgRS3HQa-50" vertex="1">
          <mxGeometry y="164" width="220" height="26" as="geometry" />
        </mxCell>
        <mxCell id="8PVN17uJOpamfgRS3HQa-64" value="+ getElencoInterventi(): List&lt;Speech&gt;" style="text;align=left;verticalAlign=top;spacingLeft=4;spacingRight=4;overflow=hidden;rotatable=0;points=[[0,0.5],[1,0.5]];portConstraint=eastwest;" parent="8PVN17uJOpamfgRS3HQa-50" vertex="1">
          <mxGeometry y="190" width="220" height="26" as="geometry" />
        </mxCell>
        <mxCell id="8PVN17uJOpamfgRS3HQa-65" value="+ toString(): String" style="text;align=left;verticalAlign=top;spacingLeft=4;spacingRight=4;overflow=hidden;rotatable=0;points=[[0,0.5],[1,0.5]];portConstraint=eastwest;" parent="8PVN17uJOpamfgRS3HQa-50" vertex="1">
          <mxGeometry y="216" width="220" height="26" as="geometry" />
        </mxCell>
        <mxCell id="8PVN17uJOpamfgRS3HQa-66" value="+ set(....): void" style="text;align=left;verticalAlign=top;spacingLeft=4;spacingRight=4;overflow=hidden;rotatable=0;points=[[0,0.5],[1,0.5]];portConstraint=eastwest;" parent="8PVN17uJOpamfgRS3HQa-50" vertex="1">
          <mxGeometry y="242" width="220" height="26" as="geometry" />
        </mxCell>
        <mxCell id="8PVN17uJOpamfgRS3HQa-67" value="+ equals(o :Object): boolean" style="text;align=left;verticalAlign=top;spacingLeft=4;spacingRight=4;overflow=hidden;rotatable=0;points=[[0,0.5],[1,0.5]];portConstraint=eastwest;" parent="8PVN17uJOpamfgRS3HQa-50" vertex="1">
          <mxGeometry y="268" width="220" height="26" as="geometry" />
        </mxCell>
        <mxCell id="8PVN17uJOpamfgRS3HQa-68" value="+ hashCode(): int" style="text;align=left;verticalAlign=top;spacingLeft=4;spacingRight=4;overflow=hidden;rotatable=0;points=[[0,0.5],[1,0.5]];portConstraint=eastwest;" parent="8PVN17uJOpamfgRS3HQa-50" vertex="1">
          <mxGeometry y="294" width="220" height="26" as="geometry" />
        </mxCell>
        <mxCell id="8PVN17uJOpamfgRS3HQa-69" value="Extends" style="endArrow=block;endSize=16;endFill=0;html=1;rounded=0;exitX=0.416;exitY=0.006;exitDx=0;exitDy=0;exitPerimeter=0;" parent="1" source="8PVN17uJOpamfgRS3HQa-50" target="8PVN17uJOpamfgRS3HQa-1" edge="1">
          <mxGeometry width="160" relative="1" as="geometry">
            <mxPoint x="-123" y="771" as="sourcePoint" />
            <mxPoint x="-121" y="612" as="targetPoint" />
          </mxGeometry>
        </mxCell>
        <mxCell id="8PVN17uJOpamfgRS3HQa-70" value="&lt;&lt;interface&gt;&gt; &#xa;HasName" style="swimlane;fontStyle=0;align=center;verticalAlign=top;childLayout=stackLayout;horizontal=1;startSize=35;horizontalStack=0;resizeParent=1;resizeLast=0;collapsible=1;marginBottom=0;rounded=0;shadow=0;strokeWidth=1;" parent="1" vertex="1">
          <mxGeometry x="390" y="385" width="164" height="75" as="geometry">
            <mxRectangle x="130" y="380" width="160" height="26" as="alternateBounds" />
          </mxGeometry>
        </mxCell>
        <mxCell id="8PVN17uJOpamfgRS3HQa-71" value="+ getNome(): String" style="text;align=left;verticalAlign=top;spacingLeft=4;spacingRight=4;overflow=hidden;rotatable=0;points=[[0,0.5],[1,0.5]];portConstraint=eastwest;" parent="8PVN17uJOpamfgRS3HQa-70" vertex="1">
          <mxGeometry y="35" width="164" height="26" as="geometry" />
        </mxCell>
        <mxCell id="8PVN17uJOpamfgRS3HQa-72" value="" style="endArrow=block;dashed=1;endFill=0;endSize=12;html=1;rounded=0;exitX=0.569;exitY=0.007;exitDx=0;exitDy=0;exitPerimeter=0;" parent="1" source="8PVN17uJOpamfgRS3HQa-50" target="8PVN17uJOpamfgRS3HQa-70" edge="1">
          <mxGeometry width="160" relative="1" as="geometry">
            <mxPoint x="-54" y="771" as="sourcePoint" />
            <mxPoint x="270" y="633" as="targetPoint" />
          </mxGeometry>
        </mxCell>
        <mxCell id="8PVN17uJOpamfgRS3HQa-73" value="1" style="endArrow=open;html=1;endSize=12;startArrow=diamondThin;startSize=14;startFill=1;edgeStyle=orthogonalEdgeStyle;align=left;verticalAlign=bottom;rounded=0;" parent="1" source="8PVN17uJOpamfgRS3HQa-52" target="8PVN17uJOpamfgRS3HQa-30" edge="1">
          <mxGeometry x="-0.8596" y="-26" relative="1" as="geometry">
            <mxPoint x="165" y="298" as="sourcePoint" />
            <mxPoint x="250" y="299" as="targetPoint" />
            <mxPoint as="offset" />
            <Array as="points">
              <mxPoint x="405" y="625" />
              <mxPoint x="405" y="542" />
            </Array>
          </mxGeometry>
        </mxCell>
      </root>
    </mxGraphModel>
  </diagram>
</mxfile>
